<svg width="50" height="45" viewBox="0 0 50 45" fill="none" xmlns="http://www.w3.org/2000/svg">
<g filter="url(#filter0_d_1200_5842)">
<path d="M4.00717 19.0401C5.76904 21.8815 8.19117 24.1525 10.5666 26.42C11.9661 27.7567 13.4194 29.0759 15.1023 30.0137C17.1692 31.1615 20.1977 31.4659 22.4943 31.018C25.2573 30.4826 27.7619 28.971 29.8611 27.0604C31.0237 26.0001 31.971 24.7194 33.0404 23.5611C34.0702 22.4449 35.2364 21.1396 36.8296 21.0417C37.1992 21.0207 37.6191 21.1746 37.759 21.5316C37.8667 21.808 37.7841 22.1229 37.6765 22.4029C37.2279 23.5856 36.4313 24.5794 35.7244 25.6152C35.1575 26.448 34.6443 27.3228 34.1922 28.2291C34.081 28.4496 33.9733 28.7015 34.0451 28.936C34.1312 29.2089 34.429 29.3454 34.7018 29.3769C35.1575 29.4294 35.6132 29.2859 36.033 29.0934C36.9911 28.6595 37.8308 27.9877 38.5987 27.2528C39.9192 25.9896 41.0603 24.5094 41.9143 22.8613C42.6894 21.3671 43.1164 19.8099 43.4178 18.1548C43.6044 17.133 44.0494 15.03 45.4775 15.6003C46.188 15.8838 45.9906 17.2415 45.9225 17.8154C45.7 19.7364 45.3842 21.6715 44.7132 23.4841C43.3855 27.0674 40.8342 30.1397 37.8164 32.2987C35.2257 34.1568 32.2222 35.3886 29.104 35.8295C21.529 36.9002 14.2842 34.0973 9.66956 27.5887C7.69239 24.8033 5.8157 21.934 4 19.0296L4.00717 19.0401Z" fill="#3C9D8D"/>
<path d="M25.6617 11.8796C25.4105 12.7634 24.9983 13.594 24.5642 14.4033C24.1302 15.2126 23.6715 16.0273 23.1802 16.8153C22.7461 17.5101 22.3502 18.2209 21.9435 18.9317L21.837 18.7534L19.8878 15.4283C19.3254 14.4699 18.6156 13.4955 18.2143 12.4493C17.8458 11.4882 17.7393 10.41 17.914 9.3984C17.9331 9.29191 17.955 9.18542 17.9796 9.07893C18.299 7.76115 19.2572 6.55517 20.573 6.12656C21.3511 5.87365 22.2137 5.89761 22.9972 6.13987C23.8108 6.38746 24.5506 6.86665 25.0829 7.51623C26.1094 8.7648 26.0794 10.3941 25.659 11.8796H25.6617Z" fill="#E14044"/>
<path d="M21.9784 13.1281C23.544 13.1281 24.8132 11.8075 24.8132 10.1783C24.8132 8.54919 23.544 7.22852 21.9784 7.22852C20.4127 7.22852 19.1436 8.54919 19.1436 10.1783C19.1436 11.8075 20.4127 13.1281 21.9784 13.1281Z" fill="white"/>
<path d="M17.3153 17.7246L14.3543 20.8439C13.1922 22.0707 13.2689 24.0006 14.5231 25.1339C15.7811 26.2672 17.7602 26.1924 18.9223 24.9693L21.8832 21.85" fill="#3C9D8D"/>
<path d="M26.608 17.7246L29.5689 20.8439C30.731 22.0707 30.6543 24.0006 29.4002 25.1339C28.1422 26.2672 26.1631 26.1924 25.001 24.9693L22.04 21.85" fill="#6794E6"/>
</g>
<defs>
<filter id="filter0_d_1200_5842" x="0" y="0" width="50" height="50" filterUnits="userSpaceOnUse" color-interpolation-filters="sRGB">
<feFlood flood-opacity="0" result="BackgroundImageFix"/>
<feColorMatrix in="SourceAlpha" type="matrix" values="0 0 0 0 0 0 0 0 0 0 0 0 0 0 0 0 0 0 127 0" result="hardAlpha"/>
<feOffset dy="4"/>
<feGaussianBlur stdDeviation="2"/>
<feComposite in2="hardAlpha" operator="out"/>
<feColorMatrix type="matrix" values="0 0 0 0 0 0 0 0 0 0 0 0 0 0 0 0 0 0 0.25 0"/>
<feBlend mode="normal" in2="BackgroundImageFix" result="effect1_dropShadow_1200_5842"/>
<feBlend mode="normal" in="SourceGraphic" in2="effect1_dropShadow_1200_5842" result="shape"/>
</filter>
</defs>
</svg>
