<svg width="24" height="24" viewBox="0 0 24 24" fill="none" xmlns="http://www.w3.org/2000/svg">
<path fill-rule="evenodd" clip-rule="evenodd" d="M18.0025 8.24999C18.0025 8.05093 17.9234 7.86004 17.7826 7.71936C17.4897 7.4267 17.0151 7.4267 16.7223 7.71936L14.4723 9.96936C14.2827 10.1588 14.2086 10.4349 14.2778 10.6938C14.347 10.9527 14.5491 11.155 14.808 11.2244C15.0668 11.2939 15.343 11.22 15.5326 11.0306L17.7826 8.78061C17.9234 8.63993 18.0025 8.44904 18.0025 8.24999Z" fill="#313144"/>
<path fill-rule="evenodd" clip-rule="evenodd" d="M20.2904 3.71249C18.3401 1.7625 15.1784 1.7625 13.2282 3.71249L3.71257 13.2272C1.80474 15.1841 1.8247 18.3112 3.75737 20.2436C5.69003 22.176 8.81714 22.1956 10.7738 20.2875L20.2904 10.7728C22.2365 8.8217 22.2365 5.66359 20.2904 3.71249ZM19.2291 9.71248L14.4713 14.4694L9.53163 9.53061L14.2894 4.7728C15.658 3.43581 17.8475 3.4486 19.2004 4.80149C20.5533 6.15438 20.5661 8.34388 19.2291 9.71248Z" fill="#313144"/>
</svg>
