<svg width="20" height="20" viewBox="0 0 20 20" fill="none" xmlns="http://www.w3.org/2000/svg">
<path fill-rule="evenodd" clip-rule="evenodd" d="M9.81011 5.49859C7.32483 5.49859 5.31011 7.5133 5.31011 9.99859C5.31011 12.4839 7.32483 14.4986 9.81011 14.4986C12.2954 14.4986 14.3101 12.4839 14.3101 9.99859C14.3075 7.51438 12.2943 5.50117 9.81011 5.49859ZM9.81011 12.9986C8.15325 12.9986 6.81011 11.6554 6.81011 9.99859C6.81011 8.34173 8.15325 6.99859 9.81011 6.99859C11.467 6.99859 12.8101 8.34173 12.8101 9.99859C12.8101 11.6554 11.467 12.9986 9.81011 12.9986ZM18.0601 10.2011C18.0639 10.0661 18.0639 9.93109 18.0601 9.79609L19.4589 8.04859C19.6076 7.86251 19.6591 7.61685 19.5976 7.38671C19.3683 6.52478 19.0253 5.6972 18.5776 4.92577C18.4588 4.72108 18.2502 4.58451 18.0151 4.55734L15.7914 4.30984C15.6989 4.21234 15.6051 4.11859 15.5101 4.02859L15.2476 1.79921C15.2202 1.5639 15.0833 1.35535 14.8782 1.23671C14.1065 0.789848 13.279 0.447181 12.4173 0.217648C12.187 0.156422 11.9413 0.208273 11.7554 0.357336L10.0126 1.74859C9.87761 1.74859 9.74261 1.74859 9.60761 1.74859L7.86011 0.352648C7.67404 0.203912 7.42837 0.152413 7.19823 0.213898C6.33644 0.443611 5.50891 0.786601 4.7373 1.2339C4.5326 1.35275 4.39603 1.56126 4.36886 1.7964L4.12136 4.0239C4.02386 4.11702 3.93011 4.21077 3.84011 4.30515L1.61073 4.56109C1.37542 4.58846 1.16687 4.72541 1.04823 4.93046C0.601372 5.70218 0.258704 6.52969 0.0291718 7.3914C-0.0320543 7.62169 0.019796 7.86737 0.168859 8.05327L1.56011 9.79609C1.56011 9.93109 1.56011 10.0661 1.56011 10.2011L0.164172 11.9486C0.0154351 12.1347 -0.0360639 12.3803 0.0254217 12.6105C0.254724 13.4724 0.597736 14.3 1.04542 15.0714C1.16428 15.2761 1.37279 15.4127 1.60792 15.4398L3.83167 15.6873C3.9248 15.7848 4.01855 15.8786 4.11292 15.9686L4.37261 18.198C4.39999 18.4333 4.53693 18.6418 4.74198 18.7605C5.5137 19.2073 6.34121 19.55 7.20292 19.7795C7.43321 19.8407 7.67889 19.7889 7.8648 19.6398L9.60761 18.2486C9.74261 18.2523 9.87761 18.2523 10.0126 18.2486L11.7601 19.6473C11.9462 19.7961 12.1918 19.8476 12.422 19.7861C13.2839 19.5568 14.1115 19.2138 14.8829 18.7661C15.0876 18.6472 15.2242 18.4387 15.2514 18.2036L15.4989 15.9798C15.5964 15.8873 15.6901 15.7936 15.7801 15.6986L18.0095 15.4361C18.2448 15.4087 18.4533 15.2718 18.572 15.0667C19.0188 14.295 19.3615 13.4675 19.591 12.6058C19.6523 12.3755 19.6004 12.1298 19.4514 11.9439L18.0601 10.2011ZM16.5507 9.59171C16.5667 9.86273 16.5667 10.1344 16.5507 10.4055C16.5396 10.591 16.5977 10.7741 16.7139 10.9192L18.0442 12.5814C17.8915 13.0665 17.6961 13.5371 17.4601 13.9876L15.3414 14.2276C15.1568 14.2481 14.9865 14.3363 14.8632 14.4751C14.6828 14.6781 14.4906 14.8703 14.2876 15.0508C14.1488 15.174 14.0606 15.3444 14.0401 15.5289L13.8048 17.6458C13.3543 17.8818 12.8837 18.0773 12.3985 18.2298L10.7354 16.8995C10.6023 16.7932 10.437 16.7353 10.2667 16.7355H10.2217C9.95066 16.7514 9.67894 16.7514 9.40792 16.7355C9.22237 16.7243 9.03929 16.7824 8.89417 16.8986L7.2273 18.2298C6.74217 18.0772 6.27157 17.8817 5.82105 17.6458L5.58105 15.5298C5.56056 15.3453 5.47238 15.175 5.33355 15.0517C5.13059 14.8713 4.93838 14.679 4.75792 14.4761C4.63467 14.3373 4.46431 14.2491 4.2798 14.2286L2.16292 13.9923C1.92685 13.5419 1.73139 13.0713 1.57886 12.5861L2.90917 10.923C3.02533 10.7778 3.08347 10.5948 3.0723 10.4092C3.05636 10.1382 3.05636 9.86648 3.0723 9.59546C3.08347 9.40991 3.02533 9.22683 2.90917 9.08171L1.57886 7.41577C1.73151 6.93065 1.92696 6.46005 2.16292 6.00952L4.27886 5.76952C4.46337 5.74904 4.63373 5.66085 4.75698 5.52202C4.93744 5.31906 5.12965 5.12686 5.33261 4.9464C5.47199 4.82307 5.56054 4.65232 5.58105 4.46734L5.81636 2.3514C6.26683 2.11533 6.73744 1.91987 7.22261 1.76734L8.88573 3.09765C9.03085 3.21381 9.21394 3.27194 9.39948 3.26077C9.6705 3.24484 9.94222 3.24484 10.2132 3.26077C10.3988 3.27194 10.5819 3.21381 10.727 3.09765L12.3929 1.76734C12.878 1.91998 13.3486 2.11544 13.7992 2.3514L14.0392 4.46734C14.0597 4.65185 14.1478 4.82221 14.2867 4.94546C14.4896 5.12592 14.6818 5.31813 14.8623 5.52109C14.9855 5.65992 15.1559 5.7481 15.3404 5.76859L17.4573 6.0039C17.6934 6.45437 17.8888 6.92498 18.0414 7.41015L16.711 9.07327C16.5938 9.21961 16.5356 9.40458 16.5479 9.59171H16.5507Z" fill="#313144"/>
<path fill-rule="evenodd" clip-rule="evenodd" d="M16.5507 9.59171C16.5667 9.86273 16.5667 10.1344 16.5507 10.4055C16.5396 10.591 16.5977 10.7741 16.7139 10.9192L18.0442 12.5814C17.8915 13.0665 17.6961 13.5371 17.4601 13.9876L15.3414 14.2276C15.1568 14.2481 14.9865 14.3363 14.8632 14.4751C14.6828 14.6781 14.4906 14.8703 14.2876 15.0508C14.1488 15.174 14.0606 15.3444 14.0401 15.5289L13.8048 17.6458C13.3543 17.8818 12.8837 18.0773 12.3985 18.2298L10.7354 16.8995C10.6023 16.7932 10.437 16.7353 10.2667 16.7355H10.2217C9.95066 16.7514 9.67894 16.7514 9.40792 16.7355C9.22237 16.7243 9.03929 16.7824 8.89417 16.8986L7.2273 18.2298C6.74217 18.0772 6.27157 17.8817 5.82105 17.6458L5.58105 15.5298C5.56056 15.3453 5.47238 15.175 5.33355 15.0517C5.13059 14.8713 4.93838 14.679 4.75792 14.4761C4.63467 14.3373 4.46431 14.2491 4.2798 14.2286L2.16292 13.9923C1.92685 13.5419 1.73139 13.0713 1.57886 12.5861L2.90917 10.923C3.02533 10.7778 3.08347 10.5948 3.0723 10.4092C3.05636 10.1382 3.05636 9.86648 3.0723 9.59546C3.08347 9.40991 3.02533 9.22683 2.90917 9.08171L1.57886 7.41577C1.73151 6.93065 1.92696 6.46005 2.16292 6.00952L4.27886 5.76952C4.46337 5.74904 4.63373 5.66085 4.75698 5.52202C4.93744 5.31906 5.12965 5.12686 5.33261 4.9464C5.47199 4.82307 5.56054 4.65232 5.58105 4.46734L5.81636 2.3514C6.26683 2.11533 6.73744 1.91987 7.22261 1.76734L8.88573 3.09765C9.03085 3.21381 9.21394 3.27194 9.39948 3.26077C9.6705 3.24484 9.94222 3.24484 10.2132 3.26077C10.3988 3.27194 10.5819 3.21381 10.727 3.09765L12.3929 1.76734C12.878 1.91998 13.3486 2.11544 13.7992 2.3514L14.0392 4.46734C14.0597 4.65185 14.1478 4.82221 14.2867 4.94546C14.4896 5.12592 14.6818 5.31813 14.8623 5.52109C14.9855 5.65992 15.1559 5.7481 15.3404 5.76859L17.4573 6.0039C17.6934 6.45437 17.8888 6.92498 18.0414 7.41015L16.711 9.07327C16.5938 9.21961 16.5356 9.40458 16.5479 9.59171H16.5507ZM5.31011 9.99859C5.31011 7.5133 7.32483 5.49859 9.81011 5.49859C12.2943 5.50117 14.3075 7.51438 14.3101 9.99859C14.3101 12.4839 12.2954 14.4986 9.81011 14.4986C7.32483 14.4986 5.31011 12.4839 5.31011 9.99859Z" fill="#313144"/>
</svg>
