<svg width="24" height="24" viewBox="0 0 24 24" fill="none" xmlns="http://www.w3.org/2000/svg">
<g clip-path="url(#clip0_1229_10103)">
<path fill-rule="evenodd" clip-rule="evenodd" d="M8.7325 -0.00195312H8.72222C8.33479 0.00147545 7.96279 0.118047 7.64222 0.323761C7.32692 0.528216 7.07093 0.811991 6.89993 1.14662C6.72307 1.49373 6.63882 1.88063 6.65534 2.26986C6.67186 2.65908 6.78858 3.03745 6.99422 3.36833L8.13765 4.98148C6.21079 6.17976 4.6765 7.5769 3.58622 9.26205C2.3005 11.2472 1.67993 13.5563 1.67993 16.2478C1.67993 18.8998 2.8165 20.9072 4.75707 22.2049C6.63936 23.4632 9.1885 23.9998 11.9999 23.9998C14.8114 23.9998 17.3622 23.4615 19.2445 22.198C21.1868 20.8952 22.3199 18.8775 22.3199 16.2118C22.3199 13.5203 21.6994 11.2129 20.4136 9.22776C19.3234 7.54776 17.7908 6.15233 15.8674 4.96262L17.0039 3.36833C17.2095 3.0378 17.3264 2.65982 17.3432 2.27093C17.36 1.88204 17.2762 1.49538 17.0999 1.14833C16.9289 0.813706 16.6729 0.52993 16.3576 0.325475C16.035 0.118393 15.661 0.00557939 15.2776 -0.000238839L8.7325 -0.00195312ZM10.5599 4.69862L8.79765 2.20605C8.79405 2.18442 8.79463 2.16231 8.79936 2.1409H15.2005C15.2047 2.16242 15.2047 2.18453 15.2005 2.20605L13.4399 4.67805C13.3518 4.80149 13.291 4.94223 13.2613 5.09096C13.2317 5.23969 13.234 5.39302 13.268 5.5408C13.302 5.68859 13.367 5.82747 13.4587 5.94825C13.5504 6.06904 13.6667 6.16898 13.7999 6.24148C16.0045 7.44148 17.5834 8.80262 18.6154 10.3952C19.6422 11.9792 20.1771 13.8683 20.1771 16.2135C20.1771 18.1832 19.3851 19.5238 18.0514 20.4203C16.6576 21.3546 14.5851 21.8586 11.9999 21.8586C9.41479 21.8586 7.34222 21.3563 5.9485 20.4238C4.61307 19.5306 3.82279 18.1952 3.82279 16.2478C3.82279 13.9026 4.35765 12.0135 5.3845 10.426C6.41822 8.83176 7.99708 7.46548 10.2016 6.2569C10.3343 6.18437 10.4502 6.08456 10.5415 5.96405C10.6329 5.84353 10.6977 5.70505 10.7317 5.55769C10.7657 5.41034 10.7682 5.25745 10.7388 5.10909C10.7095 4.96073 10.6491 4.82025 10.5616 4.6969M13.0714 8.35519V9.17633C13.5932 9.25811 14.0833 9.47937 14.4898 9.81674C14.8962 10.1541 15.204 10.595 15.3805 11.0929C15.4674 11.3587 15.4469 11.6479 15.3234 11.8988C15.1999 12.1497 14.9832 12.3424 14.7196 12.4357C14.456 12.5291 14.1664 12.5156 13.9125 12.3983C13.6587 12.2809 13.4608 12.069 13.3611 11.8078C13.3066 11.6544 13.206 11.5217 13.0731 11.4278C12.9402 11.3339 12.7815 11.2834 12.6188 11.2832H11.1822C11.0364 11.2814 10.895 11.334 10.7859 11.4308C10.6767 11.5275 10.6076 11.6615 10.592 11.8066C10.5763 11.9516 10.6153 12.0973 10.7013 12.2151C10.7873 12.3329 10.9142 12.4145 11.0571 12.4438L13.2445 12.922C13.9121 13.0681 14.5077 13.4429 14.9281 13.9816C15.3486 14.5203 15.5675 15.1891 15.5469 15.8722C15.5264 16.5553 15.2677 17.2097 14.8156 17.7222C14.3635 18.2347 13.7465 18.573 13.0714 18.6786V19.498C13.0714 19.7822 12.9585 20.0547 12.7575 20.2557C12.5566 20.4566 12.2841 20.5695 11.9999 20.5695C11.7158 20.5695 11.4432 20.4566 11.2423 20.2557C11.0414 20.0547 10.9285 19.7822 10.9285 19.498V18.6769C10.4066 18.5951 9.91656 18.3739 9.51009 18.0365C9.10362 17.6991 8.79587 17.2582 8.61936 16.7603C8.56841 16.6268 8.54468 16.4845 8.54956 16.3417C8.55445 16.1988 8.58786 16.0585 8.64782 15.9287C8.70777 15.799 8.79307 15.6826 8.8987 15.5864C9.00432 15.4901 9.12812 15.416 9.26283 15.3683C9.39754 15.3206 9.54042 15.3003 9.68308 15.3087C9.82573 15.3171 9.96527 15.3539 10.0935 15.417C10.2217 15.4801 10.336 15.5682 10.4296 15.6761C10.5233 15.7841 10.5944 15.9096 10.6388 16.0455C10.6933 16.1988 10.7939 16.3316 10.9268 16.4255C11.0596 16.5194 11.2183 16.5699 11.3811 16.57H12.6188C12.8123 16.5693 12.9987 16.4972 13.1424 16.3676C13.2862 16.2381 13.3771 16.0601 13.3979 15.8677C13.4187 15.6753 13.3678 15.482 13.2551 15.3248C13.1424 15.1675 12.9757 15.0573 12.7868 15.0152L10.5976 14.5352C9.96191 14.3956 9.39701 14.0333 9.00486 13.5138C8.61271 12.9943 8.41914 12.3518 8.45907 11.7021C8.499 11.0525 8.76981 10.4385 9.22262 9.97093C9.67544 9.50337 10.2805 9.21305 10.9285 9.15233V8.35519C10.9285 8.07103 11.0414 7.79851 11.2423 7.59758C11.4432 7.39664 11.7158 7.28376 11.9999 7.28376C12.2841 7.28376 12.5566 7.39664 12.7575 7.59758C12.9585 7.79851 13.0714 8.07103 13.0714 8.35519Z" fill="#313144"/>
</g>
<defs>
<clipPath id="clip0_1229_10103">
<rect width="24" height="24" fill="white"/>
</clipPath>
</defs>
</svg>
