<svg viewBox="0 0 32 32" xmlns="http://www.w3.org/2000/svg" fill="#238F2C" stroke="#238F2C"><g id="SVGRepo_bgCarrier" stroke-width="0"></g><g id="SVGRepo_tracerCarrier" stroke-linecap="round" stroke-linejoin="round"></g><g id="SVGRepo_iconCarrier"> <defs> <style>.cls-1{fill:#8c9eff;}.cls-2{fill:#5f7cf9;}</style> </defs> <title></title> <g id="Checklist"> <path class="cls-1" d="M12,23.5a1,1,0,0,1-.71-.29l-5-5a1,1,0,0,1,1.42-1.42L12,21.09,24.29,8.79a1,1,0,0,1,1.42,1.42l-13,13A1,1,0,0,1,12,23.5Z"></path> <path class="cls-2" d="M6.29,18.21l5,5a1,1,0,0,0,1.42,0l13-13a1,1,0,0,0,0-1.42L12,22.5,6.29,16.79A1,1,0,0,0,6.29,18.21Z"></path> </g> </g></svg>